<svg width="512" height="512" viewBox="0 0 512 512" fill="none" xmlns="http://www.w3.org/2000/svg">
<g clip-path="url(#clip0)">
<path d="M509.072 35.4361C506.916 29.1351 503.917 24.0201 499.909 19.8091C495.908 15.3631 490.589 11.9391 484.094 9.63106C478.084 7.49606 471.202 6.41406 463.642 6.41406H429.937C419.838 6.41406 410.871 7.46406 403.24 9.54606C394.902 11.8621 387.578 15.7451 381.47 21.0881C375.635 26.1951 370.567 32.7091 365.976 41.0001C365.942 41.0621 365.909 41.1241 365.875 41.1871C361.739 49.0461 358.019 58.3291 354.814 68.7811L257.293 328.609L218.321 220.853C216.443 215.66 210.708 212.97 205.516 214.85C200.322 216.728 197.635 222.461 199.513 227.655L246.973 358.884C248.405 362.844 252.165 365.483 256.377 365.483H257.887C262.054 365.483 265.784 362.899 267.249 358.997L373.648 75.5171C373.722 75.3201 373.79 75.1211 373.851 74.9191C376.698 65.5841 379.952 57.4011 383.525 50.5931C386.914 44.4901 390.654 39.6281 394.64 36.1391C398.471 32.7861 403.165 30.3231 408.546 28.8281C414.418 27.2261 421.614 26.4131 429.936 26.4131H463.641C468.914 26.4131 473.543 27.1071 477.397 28.4761C480.752 29.6681 483.34 31.2711 485.091 33.2421C485.179 33.3401 485.268 33.4371 485.359 33.5321C487.368 35.6201 488.934 38.3621 490.149 41.9101C491.378 45.5021 492.001 49.9561 492.001 55.1501V480.116C492.001 480.456 491.953 480.683 491.895 480.841C491.599 481.061 490.85 481.542 489.351 482.091C487.18 482.776 483.325 483.738 477.091 484.534C471.624 485.231 464.476 485.585 455.844 485.585C447.379 485.585 440.316 485.231 434.849 484.534C430.042 483.92 425.874 483.083 422.774 482.109C421.045 481.447 420.339 480.889 420.183 480.754C419.939 480.42 419.939 480.252 419.939 480.116V179.013C419.939 174.145 416.434 169.985 411.636 169.158C406.839 168.335 402.144 171.08 400.515 175.667L293.739 476.394C293.704 476.493 293.671 476.592 293.638 476.692C292.941 478.873 292.094 479.847 291.516 480.393C290.774 481.094 289.433 482.139 286.355 483.145C284.027 483.835 280.056 484.723 274.228 485.103C269.072 485.433 262.481 485.586 253.485 485.586C244.905 485.586 238.447 485.324 233.162 484.762C226.775 484.082 222.999 483.047 220.957 482.299C217.887 481.173 216.099 480.073 215.101 479.294C214.381 478.565 213.901 477.792 213.673 476.992C213.625 476.826 213.573 476.661 213.518 476.498L111.521 178.902C109.936 174.277 105.245 171.477 100.417 172.28C95.595 173.084 92.061 177.256 92.061 182.144V480.117C92.061 480.453 92.015 480.678 91.958 480.834C91.659 481.05 90.913 481.516 89.424 482.045C85.974 483.064 81.753 483.902 76.872 484.539C71.539 485.234 64.485 485.587 55.904 485.587C47.439 485.587 40.375 485.233 34.909 484.536C28.674 483.74 24.818 482.777 22.648 482.093C21.148 481.544 20.399 481.063 20.104 480.843C20.046 480.687 19.998 480.46 19.998 480.118V55.1511C19.998 45.2441 22.29 38.1361 27.005 33.4211C31.785 28.6411 38.01 26.4151 46.596 26.4151H78.289C89.051 26.4151 98.101 27.2571 105.219 28.9261C112.208 30.5381 117.924 32.9941 122.691 36.4321C127.482 39.9821 131.476 44.6091 134.562 50.1841C138.237 56.8231 141.411 64.8611 143.996 74.0751C144.062 74.3111 144.137 74.5451 144.221 74.7751L168.896 143C170.774 148.193 176.508 150.88 181.701 149.003C186.895 147.125 189.582 141.392 187.704 136.198L163.153 68.3151C160.168 57.7581 156.437 48.4011 152.062 40.4981C147.568 32.3801 141.673 25.5921 134.542 20.3201C134.515 20.3001 134.487 20.2801 134.459 20.2601C127.572 15.2781 119.248 11.6371 109.752 9.44606C101.173 7.43406 90.588 6.41506 78.291 6.41506H46.598C32.749 6.41506 21.4 10.7431 12.864 19.2801C4.328 27.8161 0 39.8851 0 55.1511V480.117C0 484.596 1.305 488.86 3.773 492.449C3.83 492.532 3.888 492.614 3.948 492.695C6.554 496.25 10.632 499.037 16.069 500.979C16.17 501.015 16.271 501.049 16.373 501.082C20.65 502.457 26.035 503.564 32.379 504.374C38.682 505.179 46.597 505.586 55.906 505.586C65.481 505.586 73.186 505.189 79.46 504.37C85.504 503.582 90.86 502.495 95.378 501.14C95.508 501.101 95.637 501.06 95.765 501.015C101.316 499.1 105.471 496.301 108.116 492.695C108.175 492.614 108.234 492.532 108.291 492.449C110.759 488.86 112.063 484.596 112.063 480.117V242.164L194.527 482.769C195.79 486.988 198.234 490.889 201.608 494.064C201.754 494.202 201.905 494.335 202.059 494.463C205.24 497.114 209.17 499.277 214.074 501.075C218.581 502.727 224.292 503.929 231.047 504.648C237.052 505.287 244.182 505.585 253.486 505.585C262.916 505.585 269.913 505.419 275.518 505.061C281.692 504.658 287.461 503.693 292.204 502.27C292.269 502.25 292.335 502.23 292.4 502.209C297.659 500.512 301.863 498.131 305.249 494.933C308.637 491.735 311.054 487.814 312.636 482.948L399.94 237.064V480.116C399.94 484.666 401.404 489.03 404.173 492.741C406.739 496.218 410.727 498.976 416.025 500.939C416.162 500.99 416.299 501.037 416.439 501.082C420.771 502.474 426.114 503.582 432.319 504.374C438.622 505.179 446.537 505.586 455.845 505.586C465.321 505.586 473.321 505.178 479.623 504.374C485.966 503.564 491.351 502.457 495.628 501.082C495.731 501.049 495.831 501.015 495.932 500.979C501.369 499.037 505.447 496.25 508.053 492.696C508.114 492.613 508.173 492.53 508.231 492.446C510.699 488.856 512.002 484.593 512.002 480.117V55.1511C512 47.7501 511.015 41.1181 509.072 35.4361V35.4361Z" fill="white"/>
<path d="M183.611 181.925C183.611 187.448 188.091 191.925 193.614 191.925C199.137 191.925 203.614 187.448 203.614 181.925C203.614 176.402 199.137 171.925 193.614 171.925H193.607C188.084 171.925 183.611 176.402 183.611 181.925Z" fill="white"/>
</g>
<defs>
<clipPath id="clip0">
<rect width="512" height="512" fill="white"/>
</clipPath>
</defs>
</svg>
